<svg width="18" height="18" viewBox="0 0 18 18" fill="none" xmlns="http://www.w3.org/2000/svg">
<path d="M8.5 4C7.30653 4 6.16193 4.47411 5.31802 5.31802C4.47411 6.16193 4 7.30653 4 8.5C4 9.69347 4.47411 10.8381 5.31802 11.682C6.16193 12.5259 7.30653 13 8.5 13C9.69347 13 10.8381 12.5259 11.682 11.682C12.5259 10.8381 13 9.69347 13 8.5C13 7.30653 12.5259 6.16193 11.682 5.31802C10.8381 4.47411 9.69347 4 8.5 4ZM8.5 11.4225C7.72465 11.4225 6.98107 11.1145 6.43281 10.5662C5.88456 10.018 5.57656 9.27437 5.57656 8.49903C5.57656 7.72368 5.88456 6.98009 6.43281 6.43184C6.98107 5.88359 7.72465 5.57558 8.5 5.57558C9.27535 5.57558 10.0189 5.88359 10.5672 6.43184C11.1154 6.98009 11.4234 7.72368 11.4234 8.49903C11.4234 9.27437 11.1154 10.018 10.5672 10.5662C10.0189 11.1145 9.27535 11.4225 8.5 11.4225Z" fill="#CBA37C"/>
<path d="M14 5C14.5523 5 15 4.55228 15 4C15 3.44771 14.5523 3 14 3C13.4477 3 13 3.44771 13 4C13 4.55228 13.4477 5 14 5Z" fill="#CBA37C"/>
<path d="M17.5232 3.0998C17.2918 2.50317 16.9382 1.96136 16.485 1.50904C16.0318 1.05672 15.489 0.703863 14.8914 0.473054C14.192 0.210935 13.4532 0.0692027 12.7064 0.0538921C11.7438 0.0119759 11.4389 0 8.998 0C6.55709 0 6.24422 -1.00382e-07 5.28965 0.0538921C4.54337 0.0684199 3.80507 0.210181 3.10662 0.473054C2.50882 0.703594 1.96589 1.05636 1.51266 1.50871C1.05943 1.96106 0.705915 2.50302 0.474789 3.0998C0.21221 3.79802 0.0705831 4.53577 0.0559751 5.28144C0.0129942 6.24152 0 6.54591 0 8.98403C0 11.4212 -7.44727e-09 11.7315 0.0559751 12.6866C0.0709685 13.4331 0.211906 14.1697 0.474789 14.8693C0.706564 15.4658 1.06042 16.0076 1.51376 16.4599C1.9671 16.9121 2.50995 17.265 3.10762 17.496C3.80474 17.7687 4.54335 17.9205 5.29165 17.9451C6.25422 17.987 6.55908 18 9 18C11.4409 18 11.7538 18 12.7084 17.9451C13.4551 17.9299 14.1939 17.7886 14.8934 17.5269C15.4909 17.2956 16.0335 16.9424 16.4866 16.49C16.9398 16.0375 17.2935 15.4958 17.5252 14.8992C17.7881 14.2006 17.929 13.4641 17.944 12.7176C17.987 11.7575 18 11.4531 18 9.01497C18 6.57685 18 6.26747 17.944 5.31238C17.9324 4.55616 17.79 3.80763 17.5232 3.0998ZM16.3058 12.6128C16.2993 13.1879 16.1942 13.7577 15.9949 14.2974C15.8448 14.6855 15.615 15.0379 15.3203 15.332C15.0255 15.6261 14.6724 15.8553 14.2837 16.005C13.7491 16.203 13.1845 16.308 12.6144 16.3154C11.6648 16.3593 11.3969 16.3703 8.96202 16.3703C6.5251 16.3703 6.27621 16.3703 5.30864 16.3154C4.73882 16.3084 4.17447 16.2034 3.64038 16.005C3.25024 15.8563 2.89571 15.6274 2.59973 15.3333C2.30375 15.0391 2.07291 14.6862 1.92215 14.2974C1.72568 13.7635 1.62059 13.2004 1.61128 12.6317C1.5683 11.6836 1.55831 11.4162 1.55831 8.98503C1.55831 6.55289 1.55831 6.30439 1.61128 5.33733C1.61774 4.7625 1.72289 4.19303 1.92215 3.65369C2.22701 2.86627 2.85173 2.24651 3.64038 1.94511C4.17473 1.74764 4.73892 1.64268 5.30864 1.63473C6.25922 1.59182 6.5261 1.57984 8.96202 1.57984C11.3979 1.57984 11.6478 1.57984 12.6144 1.63473C13.1845 1.64158 13.7492 1.74658 14.2837 1.94511C14.6724 2.09508 15.0255 2.32455 15.3202 2.61879C15.6149 2.91303 15.8447 3.26554 15.9949 3.65369C16.1914 4.18757 16.2964 4.75066 16.3058 5.31936C16.3487 6.26846 16.3597 6.53493 16.3597 8.96707C16.3597 11.3982 16.3597 11.6597 16.3167 12.6138H16.3058V12.6128Z" fill="#CBA37C"/>
</svg>
