<svg width="151" height="73" viewBox="0 0 151 73" fill="none" xmlns="http://www.w3.org/2000/svg">
<path fill-rule="evenodd" clip-rule="evenodd" d="M53.5634 13.5892L75.2998 2.17821L97.4463 13.604L86.9916 19.2675L75.2994 25.6014L68.6465 21.9462C68.138 21.6668 67.4983 21.8515 67.2181 22.3589C66.938 22.8663 67.1231 23.5042 67.632 23.7837L74.5869 27.6049C75.0264 27.8464 75.5589 27.8479 75.9997 27.6091L86.4418 21.9523V28.9489L75.3006 36.0382L64.57 29.0905V20.9038L76.0582 15.0773C76.8863 14.6572 77.2165 13.6469 76.7955 12.8208C76.3745 11.9946 75.3616 11.6654 74.533 12.0855L62.355 18.262C61.6497 18.6198 61.2051 19.3424 61.2051 20.1318V36.8659C61.2051 37.7927 61.9584 38.544 62.8875 38.544C63.8167 38.544 64.57 37.7927 64.57 36.8659V31.5914L74.496 38.0181C74.9801 38.3315 75.6031 38.334 76.0893 38.0244L87.8648 30.5319C88.2883 30.2621 88.5449 29.7954 88.5449 29.2939V20.8131L99.496 14.8808C100.534 14.3185 100.518 12.8274 99.4695 12.2862L75.9736 0.16414C75.5463 -0.0564119 75.0378 -0.0546049 74.6117 0.168985L51.5322 12.2851C50.4878 12.8334 50.4824 14.3235 51.523 14.8791L58.3895 18.5454C58.9014 18.8188 59.5386 18.6264 59.8128 18.1157C60.0871 17.605 59.894 16.9694 59.3821 16.696L53.5634 13.5892Z" fill="#CBA37C"/>
<path d="M1.654 68.5118C1.44902 68.5118 1.24405 68.4937 1.03907 68.4576C0.834089 68.4216 0.611025 68.3796 0.369873 68.3314L0.532649 66.2928C0.701457 66.3411 0.882321 66.365 1.07524 66.365C1.58166 66.365 1.98559 66.1607 2.28702 65.7516C2.58846 65.3308 2.8055 64.7174 2.93813 63.9115C3.07077 63.1056 3.1612 62.1134 3.20943 60.9349L3.39029 55.7032H12.7047V68.3314H10.3897V57.1103L10.9323 57.6876H4.90953L5.41595 57.0923L5.28934 60.8447C5.25317 62.0953 5.16879 63.1958 5.03613 64.146C4.90351 65.0963 4.69855 65.8959 4.4212 66.5454C4.15595 67.1827 3.80025 67.6698 3.35412 68.0066C2.90799 68.3435 2.34128 68.5118 1.654 68.5118ZM18.4367 60.9529H24.7308V62.8832H18.4367V60.9529ZM18.6176 66.365H25.7617V68.3314H16.2664V55.7032H25.5085V57.6696H18.6176V66.365ZM36.7568 68.3314L32.4703 62.1796L34.3694 61.007L39.4155 68.3314H36.7568ZM28.3828 68.3314V55.7032H30.6978V68.3314H28.3828ZM29.9925 63.0095V60.989H34.2609V63.0095H29.9925ZM34.5864 62.2879L32.4341 61.9992L36.7568 55.7032H39.2527L34.5864 62.2879ZM43.5465 68.3314V57.1103L44.1071 57.6876H39.3686V55.7032H50.0756V57.6876H45.337L45.8796 57.1103V68.3314H43.5465ZM57.8048 68.5118C56.8164 68.5118 55.9058 68.3494 55.0738 68.0247C54.2418 67.7 53.5184 67.2489 52.9034 66.6717C52.2885 66.0822 51.8124 65.3967 51.4746 64.6151C51.1373 63.8213 50.9682 62.9554 50.9682 62.0173C50.9682 61.0792 51.1373 60.2191 51.4746 59.4375C51.8124 58.6438 52.2885 57.9582 52.9034 57.3809C53.5184 56.7915 54.2418 56.3346 55.0738 56.0099C55.9058 55.6852 56.8101 55.5228 57.7867 55.5228C58.7756 55.5228 59.6799 55.6852 60.4997 56.0099C61.3317 56.3346 62.0551 56.7915 62.67 57.3809C63.285 57.9582 63.7615 58.6438 64.0989 59.4375C64.4366 60.2191 64.6053 61.0792 64.6053 62.0173C64.6053 62.9554 64.4366 63.8213 64.0989 64.6151C63.7615 65.4088 63.285 66.0944 62.67 66.6717C62.0551 67.2489 61.3317 67.7 60.4997 68.0247C59.6799 68.3494 58.7815 68.5118 57.8048 68.5118ZM57.7867 66.4552C58.4261 66.4552 59.0166 66.3469 59.5592 66.1305C60.1018 65.914 60.572 65.6073 60.9699 65.2104C61.3678 64.8014 61.6753 64.3323 61.8923 63.8033C62.1216 63.2621 62.236 62.6667 62.236 62.0173C62.236 61.3678 62.1216 60.7784 61.8923 60.2493C61.6753 59.7081 61.3678 59.2391 60.9699 58.8422C60.572 58.4331 60.1018 58.1206 59.5592 57.9041C59.0166 57.6876 58.4261 57.5794 57.7867 57.5794C57.1478 57.5794 56.5569 57.6876 56.0143 57.9041C55.4839 58.1206 55.0136 58.4331 54.6035 58.8422C54.2056 59.2391 53.8923 59.7081 53.6631 60.2493C53.446 60.7784 53.3375 61.3678 53.3375 62.0173C53.3375 62.6546 53.446 63.244 53.6631 63.7852C53.8923 64.3264 54.2056 64.8014 54.6035 65.2104C55.0014 65.6073 55.4717 65.914 56.0143 66.1305C56.5569 66.3469 57.1478 66.4552 57.7867 66.4552ZM67.2047 68.3314V55.7032H72.4135C73.5349 55.7032 74.4935 55.8836 75.2893 56.2444C76.0973 56.6052 76.7181 57.1225 77.1522 57.7959C77.5862 58.4692 77.8033 59.2693 77.8033 60.1952C77.8033 61.1211 77.5862 61.9212 77.1522 62.5946C76.7181 63.2679 76.0973 63.7852 75.2893 64.146C74.4935 64.5068 73.5349 64.6872 72.4135 64.6872H68.5069L69.5559 63.5868V68.3314H67.2047ZM69.5559 63.8393L68.5069 62.7028H72.305C73.3423 62.7028 74.12 62.4863 74.6382 62.0534C75.169 61.6082 75.434 60.989 75.434 60.1952C75.434 59.3893 75.169 58.77 74.6382 58.3371C74.12 57.9041 73.3423 57.6876 72.305 57.6876H68.5069L69.5559 56.5331V63.8393ZM80.046 68.3314V55.7032H82.361V64.6692L89.1615 55.7032H91.35V68.3314H89.0349V59.3834L82.2344 68.3314H80.046ZM95.0804 66.3469C95.7437 66.5756 96.3283 66.6356 96.8347 66.5273C97.3412 66.4191 97.7933 66.0524 98.1912 65.4269L98.8062 64.4708L99.0413 64.2182L103.454 55.7032H105.769L100.271 65.8959C99.8253 66.7497 99.2945 67.3991 98.6796 67.8443C98.0646 68.2894 97.4017 68.5357 96.6901 68.5839C95.991 68.6439 95.2612 68.5118 94.5016 68.187L95.0804 66.3469ZM98.987 66.2387L93.3441 55.7032H95.8581L100.271 64.4347L98.987 66.2387ZM107.423 68.3314V55.7032H109.34L114.893 64.9218H113.862L119.324 55.7032H121.241L121.277 68.3314H119.034L119.016 59.185H119.486L114.856 66.8881H113.807L109.105 59.185H109.647V68.3314H107.423ZM133.038 68.5118C132.145 68.5118 131.271 68.3855 130.415 68.1329C129.571 67.8682 128.86 67.5074 128.281 67.0505L129.276 65.2284C129.734 65.6014 130.289 65.9018 130.94 66.1305C131.603 66.3591 132.29 66.4732 133.002 66.4732C133.834 66.4732 134.485 66.2987 134.955 65.9501C135.437 65.6014 135.678 65.1324 135.678 64.5429C135.678 64.146 135.576 63.7974 135.371 63.4966C135.178 63.1958 134.828 62.9675 134.322 62.8111C133.827 62.6546 133.146 62.5765 132.278 62.5765H129.222L129.873 55.7032H137.306V57.6696H130.741L131.971 56.5511L131.482 61.6926L130.252 60.5921H132.803C134.056 60.5921 135.063 60.7603 135.823 61.0972C136.594 61.422 137.155 61.8788 137.505 62.4683C137.867 63.0456 138.048 63.7072 138.048 64.4527C138.048 65.1865 137.867 65.8598 137.505 66.4732C137.143 67.0866 136.589 67.5795 135.841 67.9525C135.105 68.3255 134.171 68.5118 133.038 68.5118ZM139.223 65.463V63.8393L145.463 55.7032H147.977L141.827 63.8393L140.652 63.4785H150.69V65.463H139.223ZM146.168 68.3314V65.463L146.24 63.4785V60.9349H148.447V68.3314H146.168Z" fill="white"/>
</svg>
