<svg width="23" height="15" viewBox="0 0 23 15" fill="none" xmlns="http://www.w3.org/2000/svg">
<path fill-rule="evenodd" clip-rule="evenodd" d="M21.8084 0.961294C21.96 0.407314 21.8084 0.000244141 21.0869 0.000244141H18.701C18.0944 0.000244141 17.8147 0.351893 17.663 0.739656C17.663 0.739656 16.4497 3.98041 14.7309 6.08549C14.1748 6.69484 13.922 6.88872 13.6187 6.88872C13.467 6.88872 13.2395 6.69484 13.2395 6.14091V0.961294C13.2395 0.296518 13.0714 0.000244141 12.5658 0.000244141H8.81657C8.43746 0.000244141 8.20947 0.308782 8.20947 0.601195C8.20947 1.23139 9.06883 1.37672 9.15741 3.14946V6.99957C9.15741 7.84369 9.0183 7.99673 8.71497 7.99673C7.90614 7.99673 5.93865 4.7415 4.77175 1.01667C4.54307 0.292691 4.3137 0.000244141 3.70393 0.000244141H1.31803C0.636345 0.000244141 0.5 0.351893 0.5 0.739656C0.5 1.43214 1.30887 4.86678 4.26625 9.40932C6.23781 12.5115 9.01562 14.1931 11.5433 14.1931C13.0599 14.1931 13.2475 13.8196 13.2475 13.1763V10.8317C13.2475 10.0847 13.3912 9.93559 13.8715 9.93559C14.2253 9.93559 14.832 10.1295 16.2475 11.6252C17.8652 13.3979 18.1319 14.1931 19.0419 14.1931H21.4278C22.1094 14.1931 22.4503 13.8196 22.2537 13.0826C22.0385 12.348 21.2661 11.2821 20.2413 10.0187C19.6851 9.29853 18.851 8.523 18.5982 8.13514C18.2444 7.63663 18.3455 7.41499 18.5982 6.97185C18.5982 6.97185 21.5051 2.48468 21.8084 0.961294Z" fill="#CBA37C"/>
</svg>
